Coordinates
version=1
nRows=31
nColumns=38
inDegrees=no

Units are S.I. units (second, meters, Newtons, ...)
If the header above contains a line with 'inDegrees', this indicates whether rotational values are in degrees (yes) or radians (no).

endheader
time	pelvis_tilt	pelvis_list	pelvis_rotation	pelvis_tx	pelvis_ty	pelvis_tz	hip_flexion_r	hip_adduction_r	hip_rotation_r	knee_angle_r	ankle_angle_r	subtalar_angle_r	mtp_angle_r	hip_flexion_l	hip_adduction_l	hip_rotation_l	knee_angle_l	ankle_angle_l	subtalar_angle_l	mtp_angle_l	lumbar_extension	lumbar_bending	lumbar_rotation	arm_flex_r	arm_add_r	arm_rot_r	elbow_flex_r	pro_sup_r	wrist_flex_r	wrist_dev_r	arm_flex_l	arm_add_l	arm_rot_l	elbow_flex_l	pro_sup_l	wrist_flex_l	wrist_dev_l
20	1.12162	1.45277	0.3355	0.742931	-0.421911	0.970842	0.117081	0.111163	-0.190365	0.261951	0.113248	0	0	-0.0165908	-0.0973292	-0.242178	0.021223	0.063561	0	0	-0.00839168	0.137782	0.0385339	-0.126587	-0.230582	0.188358	0.661488	1.28331	0	0	-0.0935123	-0.188443	0.440665	0.603694	0.949933	0	0
20.01	1.15191	1.45354	0.305908	0.742973	-0.421118	0.970891	0.113603	0.111514	-0.191053	0.264547	0.114996	0	0	-0.0216351	-0.0976826	-0.242463	0.0203424	0.0633236	0	0	-0.0111558	0.138866	0.0371458	-0.121424	-0.230102	0.188384	0.657947	1.28214	0	0	-0.0912015	-0.187556	0.44135	0.600625	0.948452	0	0
20.02	1.18622	1.45489	0.272744	0.742968	-0.42035	0.97111	0.109099	0.111343	-0.191977	0.266249	0.116207	0	0	-0.0274011	-0.0974059	-0.241718	0.0190907	0.062398	0	0	-0.0147773	0.139277	0.0355937	-0.116087	-0.229283	0.188222	0.653472	1.28028	0	0	-0.0884142	-0.18635	0.440878	0.596231	0.944019	0	0
20.03	1.21989	1.45639	0.240585	0.742935	-0.419578	0.97142	0.104196	0.110968	-0.192781	0.266922	0.116801	0	0	-0.0333658	-0.0967543	-0.240153	0.0172212	0.0610112	0	0	-0.0181918	0.139232	0.0335982	-0.11079	-0.22827	0.188498	0.648438	1.27852	0	0	-0.085847	-0.185698	0.444179	0.59385	0.941625	0	0
20.04	1.25276	1.45775	0.209751	0.742851	-0.418749	0.971766	0.0987856	0.110661	-0.19355	0.266261	0.116955	0	0	-0.0391118	-0.0961639	-0.238526	0.0155572	0.0600549	0	0	-0.0210875	0.139154	0.0308871	-0.105368	-0.226972	0.188578	0.642879	1.27692	0	0	-0.083759	-0.185912	0.451709	0.593706	0.943062	0	0
20.05	1.28213	1.45862	0.183081	0.742722	-0.417838	0.972086	0.0932737	0.110716	-0.194664	0.264393	0.116712	0	0	-0.0444201	-0.0958969	-0.236254	0.0135487	0.0591343	0	0	-0.0229485	0.139408	0.0279563	-0.101417	-0.225872	0.188311	0.638234	1.27623	0	0	-0.0816544	-0.186125	0.458683	0.591999	0.942746	0	0
20.06	1.30396	1.45876	0.165056	0.742531	-0.416772	0.972345	0.0879209	0.111317	-0.196715	0.260941	0.115756	0	0	-0.048735	-0.0961913	-0.232862	0.011322	0.0582677	0	0	-0.0251917	0.138872	0.0334281	-0.08251	-0.18841	-0.130008	0.621176	0.0162917	0	0	-0.0729097	-0.189501	0.487296	0.589657	0.915968	0	0
20.07	1.31661	1.45879	0.155241	0.742392	-0.415912	0.972442	0.084711	0.111721	-0.19825	0.259249	0.115788	0	0	-0.0511803	-0.0964805	-0.230528	0.0105153	0.0583346	0	0	-0.0248372	0.139556	0.0310898	-0.0809255	-0.188195	-0.130808	0.620213	0	0	0	-0.0710595	-0.189739	0.495267	0.588771	0.91797	0	0
20.08	1.32415	1.4588	0.150124	0.74228	-0.415186	0.97247	0.0826791	0.112007	-0.199521	0.258528	0.11607	0	0	-0.0528997	-0.0966479	-0.228845	0.00973635	0.0584589	0	0	-0.0240838	0.140038	0.0294458	-0.080309	-0.188323	-0.129757	0.620277	0	0	0	-0.0690361	-0.189859	0.502229	0.587541	0.919362	0	0
20.09	1.33227	1.45884	0.144526	0.742155	-0.414557	0.972469	0.0808555	0.112097	-0.200714	0.258144	0.116516	0	0	-0.0545006	-0.0967781	-0.227131	0.00900206	0.0586191	0	0	-0.0234766	0.140369	0.0279484	-0.0799442	-0.188672	-0.127013	0.6209	0	0	0	-0.0667138	-0.190191	0.509168	0.585644	0.919784	0	0
20.1	1.34653	1.45873	0.134247	0.741943	-0.413732	0.972482	0.0775205	0.112412	-0.203376	0.256561	0.117024	0	0	-0.0569012	-0.0971642	-0.224252	0.00796186	0.0588057	0	0	-0.0229385	0.140819	0.0258113	-0.0807115	-0.189188	-0.123737	0.621998	0	0	0	-0.0644553	-0.190509	0.515762	0.583448	0.919338	0	0
20.11	1.36395	1.45847	0.121384	0.741712	-0.412885	0.972506	0.0735993	0.112935	-0.207163	0.254575	0.117563	0	0	-0.0596645	-0.0977209	-0.220826	0.0066998	0.0589399	0	0	-0.0227973	0.141358	0.0238411	-0.0819159	-0.189869	-0.120329	0.622792	0	0	0	-0.0618364	-0.190692	0.522268	0.580984	0.918421	0	0
20.12	1.38073	1.4583	0.108885	0.741508	-0.412089	0.972531	0.0699263	0.11323	-0.210783	0.252889	0.118286	0	0	-0.0624584	-0.0981194	-0.217566	0.00523485	0.059003	0	0	-0.02255	0.141694	0.0217229	-0.0822758	-0.190435	-0.116723	0.622252	0	0	0	-0.059459	-0.190607	0.527296	0.578131	0.917143	0	0
20.13	1.39687	1.4582	0.0955724	0.741372	-0.411451	0.972568	0.0669043	0.113374	-0.212386	0.252114	0.119029	0	0	-0.0654888	-0.0982967	-0.215505	0.00341405	0.0588641	0	0	-0.0227151	0.142047	0.0207419	-0.0817685	-0.191089	-0.113318	0.621007	0	0	0	-0.0572464	-0.190197	0.531058	0.575505	0.916654	0	0
20.14	1.41034	1.4581	0.0849068	0.741241	-0.410817	0.97257	0.0642985	0.113461	-0.213908	0.25155	0.119877	0	0	-0.0684015	-0.0983579	-0.213376	0.00121138	0.0586348	0	0	-0.0225281	0.142356	0.0197541	-0.081146	-0.191509	-0.110692	0.619586	0	0	0	-0.0557528	-0.189974	0.534123	0.573711	0.917495	0	0
20.15	1.41891	1.45801	0.0793637	0.741131	-0.410189	0.972508	0.0626064	0.113456	-0.215922	0.251623	0.120918	0	0	-0.0705402	-0.0983945	-0.211174	0	0.0586025	0	0	-0.0216204	0.142423	0.018635	-0.0806003	-0.191699	-0.108364	0.616988	0	0	0	-0.054761	-0.189896	0.536354	0.572406	0.919084	0	0
20.16	1.42482	1.45797	0.0763734	0.741029	-0.409584	0.97243	0.0615721	0.113292	-0.218246	0.252357	0.122119	0	0	-0.0720306	-0.0984915	-0.209529	0	0.0589131	0	0	-0.0203704	0.142398	0.0174743	-0.0795105	-0.191559	-0.107026	0.612715	0	0	0	-0.0541664	-0.189657	0.537318	0.571348	0.920791	0	0
20.17	1.42941	1.45796	0.0744287	0.740942	-0.408987	0.972368	0.0608488	0.113031	-0.220503	0.253451	0.123522	0	0	-0.0732358	-0.0986061	-0.208313	0	0.0593633	0	0	-0.0190634	0.142324	0.0166839	-0.0789647	-0.191312	-0.10753	0.608611	0	0	0	-0.0536405	-0.189083	0.537242	0.570213	0.9222	0	0
20.18	1.4312	1.45788	0.0751863	0.740867	-0.408402	0.972285	0.060249	0.113011	-0.222313	0.253953	0.124669	0	0	-0.0741896	-0.0987717	-0.206898	0	0.059797	0	0	-0.0175036	0.142282	0.016222	-0.0791666	-0.190879	-0.109865	0.60524	0	0	0	-0.053109	-0.188283	0.536581	0.569203	0.923408	0	0
20.19	1.43024	1.4578	0.0786443	0.740778	-0.40785	0.972173	0.0596673	0.113204	-0.223471	0.253592	0.125357	0	0	-0.0749779	-0.0988311	-0.204895	0	0.0598047	0	0	-0.0156871	0.142279	0.0158942	-0.0795732	-0.189884	-0.114362	0.602913	0	0	0	-0.0529662	-0.187396	0.534604	0.568725	0.925099	0	0
20.2	1.45857	1.44238	0.0489747	0.741554	-0.408021	0.97318	0.0367637	0.135147	-0.223923	0.206539	0.0989951	0	0	-0.0775947	-0.117347	-0.208463	0	0.0613249	0	0	-0.0195094	0.159147	0.0201911	-0.0756593	-0.188906	-0.125751	0.596039	0	0	0	-0.0495949	-0.182193	0.528148	0.562367	0.932873	0	0
20.21	1.46456	1.4557	0.048699	0.740753	-0.406701	0.97235	0.0511881	0.117258	-0.220833	0.24605	0.121584	0	0	-0.0806567	-0.10173	-0.202846	0	0.060804	0	0	-0.0167896	0.144675	0.0157647	-0.0785306	-0.186711	-0.12713	0.596117	0	0	0	-0.0532448	-0.18526	0.527166	0.569112	0.932689	0	0
20.22	1.44668	1.4562	0.0666678	0.740869	-0.406353	0.972164	0.055801	0.115184	-0.227208	0.252545	0.125803	0	0	-0.0790781	-0.101102	-0.202276	0	0.0608686	0	0	-0.0134689	0.143894	0.0172666	-0.0790534	-0.185741	-0.128142	0.594023	0	0	0	-0.0540923	-0.185131	0.526056	0.571192	0.931903	0	0
20.23	1.43983	1.45599	0.0741041	0.740963	-0.405945	0.97207	0.0570966	0.114994	-0.229872	0.254598	0.127399	0	0	-0.0785602	-0.101436	-0.201673	0	0.061523	0	0	-0.0113815	0.143953	0.0183215	-0.0795725	-0.184828	-0.128805	0.591996	0	0	0	-0.0547685	-0.184726	0.525071	0.572711	0.93132	0	0
20.24	1.46138	1.44259	0.0505829	0.741627	-0.406107	0.972974	0.0351017	0.135091	-0.226732	0.208182	0.102025	0	0	-0.0799892	-0.117456	-0.205094	0	0.0632567	0	0	-0.0143711	0.158719	0.0225235	-0.0767443	-0.184846	-0.134249	0.585444	0	0	0	-0.0521147	-0.180086	0.521633	0.567744	0.933705	0	0
20.25	1.46947	1.45387	0.0468121	0.74109	-0.404932	0.972271	0.0485283	0.119406	-0.224894	0.245541	0.122931	0	0	-0.0826034	-0.104503	-0.200636	0	0.0633418	0	0	-0.0124527	0.146213	0.0194755	-0.0799163	-0.182757	-0.134767	0.585517	0	0	0	-0.0551434	-0.182815	0.522399	0.573596	0.933808	0	0
20.26	1.46586	1.44212	0.0470818	0.741742	-0.405224	0.972928	0.0329318	0.135962	-0.226861	0.206924	0.102645	0	0	-0.0808899	-0.118291	-0.204288	0	0.0645202	0	0	-0.0126488	0.159213	0.0249895	-0.0780559	-0.183164	-0.138347	0.580647	0	0	0	-0.0526483	-0.178784	0.521969	0.569422	0.934314	0	0
20.27	1.47656	1.45343	0.040452	0.741229	-0.404091	0.97225	0.0459315	0.120403	-0.224946	0.244001	0.123456	0	0	-0.083876	-0.105283	-0.199545	0	0.064212	0	0	-0.0111074	0.146695	0.0218857	-0.0807059	-0.181053	-0.138578	0.580055	0	0	0	-0.0560602	-0.181816	0.522242	0.575396	0.934244	0	0
20.28	1.38985	1.45538	0.121933	0.742402	-0.404318	0.971284	0.034525	0.125837	-0.2153	0.193413	0.105054	0	0	-0.0726831	-0.103353	-0.201767	0	0.0652729	0	0	-0.00024901	0.142243	0.0277986	-0.0803463	-0.177251	-0.143642	0.573508	0	0	0	-0.0579696	-0.185042	0.525197	0.57943	0.931039	0	0
20.29	1.47974	1.45353	0.0369986	0.741424	-0.403293	0.972196	0.0435306	0.121027	-0.222414	0.241699	0.123514	0	0	-0.0846741	-0.105355	-0.199519	0	0.065141	0	0	-0.00943498	0.146533	0.0252478	-0.0810667	-0.179084	-0.144407	0.572329	0	0	0	-0.057178	-0.1819	0.526688	0.577245	0.931153	0	0
20.3	1.49456	1.44164	0.0186133	0.742041	-0.40364	0.972992	0.0254645	0.137549	-0.225412	0.203526	0.103329	0	0	-0.0857934	-0.119284	-0.203918	0	0.0666104	0	0	-0.0128523	0.159929	0.0310501	-0.079345	-0.180165	-0.14479	0.570073	0	0	0	-0.0536865	-0.176881	0.525243	0.570341	0.93553	0	0
